# xmcd
#
# Track frame offsets:
#	150
#	18944
#	34008
#	52736
#	65438
#	79935
#	92821
#	114129
#	133086
#	151190
#	165003
#
# Disc length: 2449 seconds
#
# Revision: 0
# Processed by: cddbd v1.4PL0 Copyright (c) Steve Scherf et al.
# Submitted via: dBpowerAMP V4.0
#
DISCID=73098f0b
DTITLE=Sandra Mihanovich - Soy Lo Que Soy
DYEAR=1900
DGENRE=Blues
TTITLE0=Soy Lo Que Soy
TTITLE1=Como El Juez a la Verdad
TTITLE2=Por Que
TTITLE3=Todo Sin Vos
TTITLE4=Desnudar Nuestros Deseos
TTITLE5=Se Metieron Con Todo
TTITLE6=Una Mujer
TTITLE7=Nacer De Nuevo
TTITLE8=Dame Mas, Quiero Mas
TTITLE9=Te Tengo En Casa Conmigo
TTITLE10=Sola En Mi
EXTD=
EXTT0=
EXTT1=
EXTT2=
EXTT3=
EXTT4=
EXTT5=
EXTT6=
EXTT7=
EXTT8=
EXTT9=
EXTT10=
PLAYORDER=
